{
  "accessors": [
    {
      "bufferView": 2,
      "componentType": 5126,
      "count": 32061,
      "max": [
        0.21773399412631989,
        0.23542490601539612,
        0.13547499477863312
      ],
      "min": [
        -0.21874280273914337,
        -0.15342889726161957,
        -0.10274670273065567
      ],
      "type": "VEC3"
    },
    {
      "bufferView": 2,
      "byteOffset": 384732,
      "componentType": 5126,
      "count": 32061,
      "max": [
        0.9998500347137451,
        0.9999068379402161,
        0.9999745488166809
      ],
      "min": [
        -0.9999573826789856,
        -1.0,
        -0.999882698059082
      ],
      "type": "VEC3"
    },
    {
      "bufferView": 1,
      "componentType": 5126,
      "count": 32061,
      "max": [
        0.650390625,
        0.9867039918899536
      ],
      "min": [
        0.005203499924391508,
        0.012577000074088573
      ],
      "type": "VEC2"
    },
    {
      "bufferView": 0,
      "componentType": 5125,
      "count": 176940,
      "type": "SCALAR"
    }
  ],
  "asset": {
    "extras": {
      "author": "EntropyNine (https://sketchfab.com/entropy9ine)",
      "license": "CC-BY-4.0 (http://creativecommons.org/licenses/by/4.0/)",
      "source": "https://sketchfab.com/3d-models/mark-zuckerberg-deb8560956d947c8b6c3c41790532160",
      "title": "Mark Zuckerberg"
    },
    "generator": "Sketchfab-12.41.0",
    "version": "2.0"
  },
  "bufferViews": [
    {
      "buffer": 0,
      "byteLength": 707760,
      "name": "floatBufferViews",
      "target": 34963
    },
    {
      "buffer": 0,
      "byteLength": 256488,
      "byteOffset": 707760,
      "byteStride": 8,
      "name": "floatBufferViews",
      "target": 34962
    },
    {
      "buffer": 0,
      "byteLength": 769464,
      "byteOffset": 964248,
      "byteStride": 12,
      "name": "floatBufferViews",
      "target": 34962
    }
  ],
  "buffers": [
    {
      "byteLength": 1733712,
      "uri": "zuck.bin"
    }
  ],
  "images": [
    {
      "uri": "zuck_textures/modelmaterial_1_baseColor.png"
    }
  ],
  "materials": [
    {
      "doubleSided": true,
      "name": "modelmaterial_1",
      "pbrMetallicRoughness": {
        "baseColorTexture": {
          "index": 0
        },
        "metallicFactor": 0.0
      }
    }
  ],
  "meshes": [
    {
      "name": "model:Mesh_model:material_1_0",
      "primitives": [
        {
          "attributes": {
            "NORMAL": 1,
            "POSITION": 0,
            "TEXCOORD_0": 2
          },
          "indices": 3,
          "material": 0,
          "mode": 4
        }
      ]
    }
  ],
  "nodes": [
    {
      "children": [
        1
      ],
      "matrix": [
        1.0,
        0.0,
        0.0,
        0.0,
        0.0,
        2.220446049250313e-16,
        -1.0,
        0.0,
        0.0,
        1.0,
        2.220446049250313e-16,
        0.0,
        0.0,
        0.0,
        0.0,
        1.0
      ],
      "name": "Sketchfab_model"
    },
    {
      "children": [
        2
      ],
      "matrix": [
        0.009999999776482582,
        0.0,
        0.0,
        0.0,
        0.0,
        0.0,
        0.009999999776482582,
        0.0,
        0.0,
        -0.009999999776482582,
        0.0,
        0.0,
        0.0,
        0.0,
        0.0,
        1.0
      ],
      "name": "d15314e2ddf34b90b19d29fca3b72f09.fbx"
    },
    {
      "children": [
        3
      ],
      "name": "RootNode"
    },
    {
      "children": [
        4
      ],
      "matrix": [
        100.0,
        0.0,
        0.0,
        0.0,
        0.0,
        100.0,
        0.0,
        0.0,
        0.0,
        0.0,
        100.0,
        0.0,
        0.0,
        15.059478759765625,
        0.0,
        1.0
      ],
      "name": "model:Mesh"
    },
    {
      "mesh": 0,
      "name": "model:Mesh_model:material_1_0"
    }
  ],
  "samplers": [
    {
      "magFilter": 9729,
      "minFilter": 9987,
      "wrapS": 10497,
      "wrapT": 10497
    }
  ],
  "scene": 0,
  "scenes": [
    {
      "name": "Sketchfab_Scene",
      "nodes": [
        0
      ]
    }
  ],
  "textures": [
    {
      "sampler": 0,
      "source": 0
    }
  ]
}
