{
  "accessors": [
    {
      "bufferView": 2,
      "componentType": 5126,
      "count": 624,
      "max": [
        9.6714410781860352,
        1.3295729160308838,
        8.7865848541259766
      ],
      "min": [
        3.380640983581543,
        0.087458997964859009,
        5.2821259498596191
      ],
      "type": "VEC3"
    },
    {
      "bufferView": 2,
      "byteOffset": 7488,
      "componentType": 5126,
      "count": 624,
      "max": [
        0.97897988557815552,
        0.29655992984771729,
        0.9839521050453186
      ],
      "min": [
        -0.97342002391815186,
        -0.99984663724899292,
        -0.99676322937011719
      ],
      "type": "VEC3"
    },
    {
      "bufferView": 3,
      "componentType": 5126,
      "count": 624,
      "max": [
        0.97006338834762573,
        0.99120950698852539,
        0.99999666213989258,
        1
      ],
      "min": [
        -0.99363207817077637,
        -0.99112129211425781,
        -0.97713840007781982,
        -1
      ],
      "type": "VEC4"
    },
    {
      "bufferView": 1,
      "componentType": 5126,
      "count": 624,
      "max": [
        0.88142901659011841,
        0.8930019736289978
      ],
      "min": [
        0.0019920000340789557,
        0.39194199442863464
      ],
      "type": "VEC2"
    },
    {
      "bufferView": 0,
      "componentType": 5125,
      "count": 2880,
      "max": [
        623
      ],
      "min": [
        0
      ],
      "type": "SCALAR"
    },
    {
      "bufferView": 2,
      "byteOffset": 14976,
      "componentType": 5126,
      "count": 47,
      "max": [
        6.76141357421875,
        0.11393898725509644,
        6.7618732452392578
      ],
      "min": [
        6.3216772079467773,
        0,
        6.3639960289001465
      ],
      "type": "VEC3"
    },
    {
      "bufferView": 2,
      "byteOffset": 15540,
      "componentType": 5126,
      "count": 47,
      "max": [
        0.86142939329147339,
        -0.50678622722625732,
        0.80762434005737305
      ],
      "min": [
        -0.86104559898376465,
        -0.99909764528274536,
        -0.55629563331604004
      ],
      "type": "VEC3"
    },
    {
      "bufferView": 3,
      "byteOffset": 9984,
      "componentType": 5126,
      "count": 47,
      "max": [
        0.50164341926574707,
        0.80762434005737305,
        0.99909764528274536,
        1
      ],
      "min": [
        -0.50075584650039673,
        -0.55629563331604004,
        0.58969730138778687,
        1
      ],
      "type": "VEC4"
    },
    {
      "bufferView": 1,
      "byteOffset": 4992,
      "componentType": 5126,
      "count": 47,
      "max": [
        0.76863902807235718,
        0.57825398445129395
      ],
      "min": [
        0.74647402763366699,
        0.55513501167297363
      ],
      "type": "VEC2"
    },
    {
      "bufferView": 0,
      "byteOffset": 11520,
      "componentType": 5125,
      "count": 228,
      "max": [
        46
      ],
      "min": [
        0
      ],
      "type": "SCALAR"
    },
    {
      "bufferView": 2,
      "byteOffset": 16104,
      "componentType": 5126,
      "count": 57,
      "max": [
        6.9699602127075195,
        0.76355993747711182,
        5.9794740676879883
      ],
      "min": [
        6.1720781326293945,
        0.44139400124549866,
        5.7931818962097168
      ],
      "type": "VEC3"
    },
    {
      "bufferView": 2,
      "byteOffset": 16788,
      "componentType": 5126,
      "count": 57,
      "max": [
        0.36763200163841248,
        0.43682384490966797,
        0.93093466758728027
      ],
      "min": [
        -0.45905399322509766,
        -0.97904962301254272,
        -0.99676322937011719
      ],
      "type": "VEC3"
    },
    {
      "bufferView": 3,
      "byteOffset": 10736,
      "componentType": 5126,
      "count": 57,
      "max": [
        0.89198774099349976,
        0.92886161804199219,
        0.89222580194473267,
        1
      ],
      "min": [
        -0.95812886953353882,
        -0.99017965793609619,
        -0.43408668041229248,
        -1
      ],
      "type": "VEC4"
    },
    {
      "bufferView": 1,
      "byteOffset": 5368,
      "componentType": 5126,
      "count": 57,
      "max": [
        0.72832399606704712,
        0.79454398155212402
      ],
      "min": [
        0.61805599927902222,
        0.75350701808929443
      ],
      "type": "VEC2"
    },
    {
      "bufferView": 0,
      "byteOffset": 12432,
      "componentType": 5125,
      "count": 192,
      "max": [
        56
      ],
      "min": [
        0
      ],
      "type": "SCALAR"
    },
    {
      "bufferView": 2,
      "byteOffset": 17472,
      "componentType": 5126,
      "count": 2507,
      "max": [
        8.6534814834594727,
        6.1169180870056152,
        6.896122932434082
      ],
      "min": [
        0,
        1.2313499450683594,
        0.029182910919189453
      ],
      "type": "VEC3"
    },
    {
      "bufferView": 2,
      "byteOffset": 47556,
      "componentType": 5126,
      "count": 2507,
      "max": [
        0.99979233741760254,
        0.9999995231628418,
        1
      ],
      "min": [
        -0.99984526634216309,
        -0.9999995231628418,
        -0.99999988079071045
      ],
      "type": "VEC3"
    },
    {
      "bufferView": 3,
      "byteOffset": 11648,
      "componentType": 5126,
      "count": 2507,
      "max": [
        1,
        1,
        0.99992042779922485,
        1
      ],
      "min": [
        -0.9999956488609314,
        -1,
        -0.99998337030410767,
        -1
      ],
      "type": "VEC4"
    },
    {
      "bufferView": 1,
      "byteOffset": 5824,
      "componentType": 5126,
      "count": 2507,
      "max": [
        0.875,
        1
      ],
      "min": [
        0.125,
        0
      ],
      "type": "VEC2"
    },
    {
      "bufferView": 0,
      "byteOffset": 13200,
      "componentType": 5125,
      "count": 12768,
      "max": [
        2506
      ],
      "min": [
        0
      ],
      "type": "SCALAR"
    },
    {
      "bufferView": 2,
      "byteOffset": 77640,
      "componentType": 5126,
      "count": 2305,
      "max": [
        13.119234085083008,
        6.90289306640625,
        12.315601348876953
      ],
      "min": [
        1.3293439149856567,
        0.10592198371887207,
        2.2827281951904297
      ],
      "type": "VEC3"
    },
    {
      "bufferView": 2,
      "byteOffset": 105300,
      "componentType": 5126,
      "count": 2305,
      "max": [
        1,
        1,
        0.99999934434890747
      ],
      "min": [
        -1,
        -0.99999946355819702,
        -1
      ],
      "type": "VEC3"
    },
    {
      "bufferView": 3,
      "byteOffset": 51760,
      "componentType": 5126,
      "count": 2305,
      "max": [
        0.99999552965164185,
        1,
        0.99710297584533691,
        1
      ],
      "min": [
        -0.99999934434890747,
        -1,
        -1,
        -1
      ],
      "type": "VEC4"
    },
    {
      "bufferView": 1,
      "byteOffset": 25880,
      "componentType": 5126,
      "count": 2305,
      "max": [
        0.99800801277160645,
        1
      ],
      "min": [
        0.0019920000340789557,
        0
      ],
      "type": "VEC2"
    },
    {
      "bufferView": 0,
      "byteOffset": 64272,
      "componentType": 5125,
      "count": 11472,
      "max": [
        2304
      ],
      "min": [
        0
      ],
      "type": "SCALAR"
    },
    {
      "bufferView": 2,
      "byteOffset": 132960,
      "componentType": 5126,
      "count": 3250,
      "max": [
        8.4897937774658203,
        5.9525017738342285,
        4.4557838439941406
      ],
      "min": [
        1.6019349098205566,
        1.6392480134963989,
        0
      ],
      "type": "VEC3"
    },
    {
      "bufferView": 2,
      "byteOffset": 171960,
      "componentType": 5126,
      "count": 3250,
      "max": [
        0.99782514572143555,
        0.99841761589050293,
        0.99927014112472534
      ],
      "min": [
        -0.9978252649307251,
        -0.9978516697883606,
        -0.99926990270614624
      ],
      "type": "VEC3"
    },
    {
      "bufferView": 3,
      "byteOffset": 88640,
      "componentType": 5126,
      "count": 3250,
      "max": [
        0.99969232082366943,
        0.99484992027282715,
        0.99991428852081299,
        1
      ],
      "min": [
        -0.99966686964035034,
        -0.99946337938308716,
        -0.99432593584060669,
        1
      ],
      "type": "VEC4"
    },
    {
      "bufferView": 1,
      "byteOffset": 44320,
      "componentType": 5126,
      "count": 3250,
      "max": [
        0.875,
        1
      ],
      "min": [
        0.125,
        0
      ],
      "type": "VEC2"
    },
    {
      "bufferView": 0,
      "byteOffset": 110160,
      "componentType": 5125,
      "count": 14976,
      "max": [
        3249
      ],
      "min": [
        0
      ],
      "type": "SCALAR"
    },
    {
      "bufferView": 2,
      "byteOffset": 210960,
      "componentType": 5126,
      "count": 882,
      "max": [
        9.0387153625488281,
        1.9145588874816895,
        8.5359773635864258
      ],
      "min": [
        4.0876789093017578,
        0.33473697304725647,
        6.1495532989501953
      ],
      "type": "VEC3"
    },
    {
      "bufferView": 2,
      "byteOffset": 221544,
      "componentType": 5126,
      "count": 882,
      "max": [
        0.99990236759185791,
        0.99834811687469482,
        0.99933964014053345
      ],
      "min": [
        -0.99990236759185791,
        -0.99834811687469482,
        -0.99933964014053345
      ],
      "type": "VEC3"
    },
    {
      "bufferView": 3,
      "byteOffset": 140640,
      "componentType": 5126,
      "count": 882,
      "max": [
        0.99948763847351074,
        0.99991875886917114,
        0.8166998028755188,
        1
      ],
      "min": [
        -0.92746084928512573,
        -0.99983102083206177,
        -0.81186783313751221,
        1
      ],
      "type": "VEC4"
    },
    {
      "bufferView": 1,
      "byteOffset": 70320,
      "componentType": 5126,
      "count": 882,
      "max": [
        0.875,
        1
      ],
      "min": [
        0.125,
        0
      ],
      "type": "VEC2"
    },
    {
      "bufferView": 0,
      "byteOffset": 170064,
      "componentType": 5125,
      "count": 4608,
      "max": [
        881
      ],
      "min": [
        0
      ],
      "type": "SCALAR"
    }
  ],
  "asset": {
    "extras": {
      "author": "sillyking (https://sketchfab.com/sillyking)",
      "license": "CC-BY-NC-4.0 (http://creativecommons.org/licenses/by-nc/4.0/)",
      "source": "https://sketchfab.com/3d-models/octocat-cad2ffa5d8a24423ab246ee0916a7f3e",
      "title": "Octocat"
    },
    "generator": "Sketchfab-6.34.0",
    "version": "2.0"
  },
  "bufferViews": [
    {
      "buffer": 0,
      "byteLength": 188496,
      "byteOffset": 0,
      "name": "floatBufferViews",
      "target": 34963
    },
    {
      "buffer": 0,
      "byteLength": 77376,
      "byteOffset": 188496,
      "byteStride": 8,
      "name": "floatBufferViews",
      "target": 34962
    },
    {
      "buffer": 0,
      "byteLength": 232128,
      "byteOffset": 265872,
      "byteStride": 12,
      "name": "floatBufferViews",
      "target": 34962
    },
    {
      "buffer": 0,
      "byteLength": 154752,
      "byteOffset": 498000,
      "byteStride": 16,
      "name": "floatBufferViews",
      "target": 34962
    }
  ],
  "buffers": [
    {
      "byteLength": 652752,
      "uri": "octocat.bin"
    }
  ],
  "extensionsRequired": [
    "KHR_materials_pbrSpecularGlossiness"
  ],
  "extensionsUsed": [
    "KHR_materials_pbrSpecularGlossiness"
  ],
  "materials": [
    {
      "doubleSided": true,
      "emissiveFactor": [
        0,
        0,
        0
      ],
      "extensions": {
        "KHR_materials_pbrSpecularGlossiness": {
          "diffuseFactor": [
            0.94999999999999996,
            0.76000000000000001,
            0.45000000000000001,
            1
          ],
          "glossinessFactor": 0.40000000000000002,
          "specularFactor": [
            0,
            0,
            0
          ]
        }
      },
      "name": "octocat19lambert2SG"
    },
    {
      "doubleSided": true,
      "emissiveFactor": [
        0,
        0,
        0
      ],
      "extensions": {
        "KHR_materials_pbrSpecularGlossiness": {
          "diffuseFactor": [
            0.050000000000000003,
            0.050000000000000003,
            0.059999999999999998,
            1
          ],
          "glossinessFactor": 0.59999999999999998,
          "specularFactor": [
            0,
            0,
            0
          ]
        }
      },
      "name": "octocat19lambert3SG"
    },
    {
      "doubleSided": true,
      "emissiveFactor": [
        0,
        0,
        0
      ],
      "extensions": {
        "KHR_materials_pbrSpecularGlossiness": {
          "diffuseFactor": [
            0,
            0.57999999999999996,
            0.65000000000000002,
            1
          ],
          "glossinessFactor": 0.40000000000000002,
          "specularFactor": [
            0,
            0,
            0
          ]
        }
      },
      "name": "octocat19lambert4SG"
    },
    {
      "doubleSided": true,
      "emissiveFactor": [
        0,
        0,
        0
      ],
      "extensions": {
        "KHR_materials_pbrSpecularGlossiness": {
          "diffuseFactor": [
            0.72999999999999998,
            0.37,
            0.25,
            1
          ],
          "glossinessFactor": 0.40000000000000002,
          "specularFactor": [
            0,
            0,
            0
          ]
        }
      },
      "name": "octocat19lambert5SG"
    },
    {
      "doubleSided": true,
      "emissiveFactor": [
        0,
        0,
        0
      ],
      "extensions": {
        "KHR_materials_pbrSpecularGlossiness": {
          "diffuseFactor": [
            0.72999999999999998,
            0.16,
            0.16,
            1
          ],
          "glossinessFactor": 0.40000000000000002,
          "specularFactor": [
            0,
            0,
            0
          ]
        }
      },
      "name": "octocat19lambert6SG"
    },
    {
      "doubleSided": false,
      "emissiveFactor": [
        0,
        0,
        0
      ],
      "extensions": {
        "KHR_materials_pbrSpecularGlossiness": {
          "diffuseFactor": [
            0.0011001634909624139,
            0.059213290297530752,
            0.069357137222866599,
            1
          ],
          "glossinessFactor": 0.85999999999999999,
          "specularFactor": [
            0.5,
            0.5,
            0.5
          ]
        }
      },
      "name": "octocat19rampShader1SG"
    }
  ],
  "meshes": [
    {
      "primitives": [
        {
          "attributes": {
            "NORMAL": 1,
            "POSITION": 0,
            "TANGENT": 2,
            "TEXCOORD_0": 3
          },
          "indices": 4,
          "material": 0,
          "mode": 4
        }
      ]
    },
    {
      "primitives": [
        {
          "attributes": {
            "NORMAL": 6,
            "POSITION": 5,
            "TANGENT": 7,
            "TEXCOORD_0": 8
          },
          "indices": 9,
          "material": 3,
          "mode": 4
        }
      ]
    },
    {
      "primitives": [
        {
          "attributes": {
            "NORMAL": 11,
            "POSITION": 10,
            "TANGENT": 12,
            "TEXCOORD_0": 13
          },
          "indices": 14,
          "material": 4,
          "mode": 4
        }
      ]
    },
    {
      "primitives": [
        {
          "attributes": {
            "NORMAL": 16,
            "POSITION": 15,
            "TANGENT": 17,
            "TEXCOORD_0": 18
          },
          "indices": 19,
          "material": 1,
          "mode": 4
        }
      ]
    },
    {
      "primitives": [
        {
          "attributes": {
            "NORMAL": 21,
            "POSITION": 20,
            "TANGENT": 22,
            "TEXCOORD_0": 23
          },
          "indices": 24,
          "material": 1,
          "mode": 4
        }
      ]
    },
    {
      "primitives": [
        {
          "attributes": {
            "NORMAL": 26,
            "POSITION": 25,
            "TANGENT": 27,
            "TEXCOORD_0": 28
          },
          "indices": 29,
          "material": 2,
          "mode": 4
        }
      ]
    },
    {
      "primitives": [
        {
          "attributes": {
            "NORMAL": 31,
            "POSITION": 30,
            "TANGENT": 32,
            "TEXCOORD_0": 33
          },
          "indices": 34,
          "material": 5,
          "mode": 4
        }
      ]
    }
  ],
  "nodes": [
    {
      "children": [
        1
      ],
      "name": "RootNode (gltf orientation matrix)",
      "rotation": [
        -0.70710678118654746,
        -0,
        -0,
        0.70710678118654757
      ]
    },
    {
      "children": [
        2
      ],
      "name": "RootNode (model correction matrix)"
    },
    {
      "children": [
        3
      ],
      "matrix": [
        1,
        0,
        0,
        0,
        0,
        1,
        0,
        0,
        0,
        0,
        1,
        0,
        -2.7309019565582275,
        0.27235600352287292,
        -6.032771110534668,
        1
      ],
      "name": "Octocat.obj.cleaner.gles"
    },
    {
      "children": [
        4,
        5,
        6,
        7,
        8,
        9,
        10
      ],
      "name": ""
    },
    {
      "mesh": 0,
      "name": ""
    },
    {
      "mesh": 1,
      "name": ""
    },
    {
      "mesh": 2,
      "name": ""
    },
    {
      "mesh": 3,
      "name": ""
    },
    {
      "mesh": 4,
      "name": ""
    },
    {
      "mesh": 5,
      "name": ""
    },
    {
      "mesh": 6,
      "name": ""
    }
  ],
  "scene": 0,
  "scenes": [
    {
      "name": "OSG_Scene",
      "nodes": [
        0
      ]
    }
  ]
}

